<?xml version="1.0" encoding="UTF-8" standalone="no"?><svg xmlns="http://www.w3.org/2000/svg" xmlns:xlink="http://www.w3.org/1999/xlink" contentScriptType="application/ecmascript" contentStyleType="text/css" height="1561px" preserveAspectRatio="none" style="width:1864px;height:1561px;" version="1.1" viewBox="0 0 1864 1561" width="1864px" zoomAndPan="magnify"><defs><filter height="300%" id="feev3ciwcskw8" width="300%" x="-1" y="-1"><feGaussianBlur result="blurOut" stdDeviation="2.0"/><feColorMatrix in="blurOut" result="blurOut2" type="matrix" values="0 0 0 0 0 0 0 0 0 0 0 0 0 0 0 0 0 0 .4 0"/><feOffset dx="4.0" dy="4.0" in="blurOut2" result="blurOut3"/><feBlend in="SourceGraphic" in2="blurOut3" mode="normal"/></filter></defs><g><!--MD5=[3fd616f346a44cd59a91eb10b19e157c]
class User--><rect fill="#FEFECE" filter="url(#feev3ciwcskw8)" height="278.4844" id="User" style="stroke: #A80036; stroke-width: 1.5;" width="254" x="150" y="1272"/><ellipse cx="258.25" cy="1288" fill="#ADD1B2" rx="11" ry="11" style="stroke: #A80036; stroke-width: 1.0;"/><path d="M260.5938,1283.6719 L260.7656,1283.75 C260.9844,1283.4375 261.1875,1283.3438 261.4844,1283.3438 C261.7813,1283.3438 262.0625,1283.4844 262.2188,1283.75 C262.3125,1283.9063 262.3281,1284.0313 262.3281,1284.4688 L262.3281,1285.8906 C262.3281,1286.3125 262.2969,1286.5 262.1875,1286.6563 C262.0156,1286.875 261.75,1287.0156 261.4844,1287.0156 C261.2656,1287.0156 261.0313,1286.9063 260.8906,1286.7656 C260.75,1286.6406 260.7188,1286.5156 260.6563,1286.1094 C260.5625,1285.7031 260.3906,1285.4844 259.9063,1285.2031 C259.4375,1284.9531 258.8281,1284.7969 258.25,1284.7969 C256.5156,1284.7969 255.2656,1286.1094 255.2656,1287.8906 L255.2656,1288.9844 C255.2656,1290.6875 256.5625,1291.7813 258.6094,1291.7813 C259.375,1291.7813 260.0625,1291.6563 260.4844,1291.3906 C260.6719,1291.2969 260.6719,1291.2969 261.125,1290.8125 C261.3125,1290.625 261.5156,1290.5469 261.7344,1290.5469 C262.2031,1290.5469 262.5938,1290.9375 262.5938,1291.3906 C262.5938,1291.7813 262.2656,1292.2344 261.6875,1292.6406 C260.9375,1293.1875 259.7813,1293.4844 258.5625,1293.4844 C255.6719,1293.4844 253.5625,1291.5938 253.5625,1289.0156 L253.5625,1287.8906 C253.5625,1285.1719 255.5625,1283.0938 258.1875,1283.0938 C259.0625,1283.0938 259.6563,1283.2344 260.5938,1283.6719 Z "/><text fill="#000000" font-family="sans-serif" font-size="12" lengthAdjust="spacingAndGlyphs" textLength="29" x="278.75" y="1292.1543">User</text><line style="stroke: #A80036; stroke-width: 1.5;" x1="151" x2="403" y1="1304" y2="1304"/><text fill="#000000" font-family="sans-serif" font-size="11" lengthAdjust="spacingAndGlyphs" textLength="62" x="156" y="1318.2104">id : Integer</text><text fill="#000000" font-family="sans-serif" font-size="11" lengthAdjust="spacingAndGlyphs" textLength="102" x="156" y="1331.0151">firstName : String</text><text fill="#000000" font-family="sans-serif" font-size="11" lengthAdjust="spacingAndGlyphs" textLength="100" x="156" y="1343.8198">lastName : String</text><text fill="#000000" font-family="sans-serif" font-size="11" lengthAdjust="spacingAndGlyphs" textLength="77" x="156" y="1356.6245">email : String</text><text fill="#000000" font-family="sans-serif" font-size="11" lengthAdjust="spacingAndGlyphs" textLength="104" x="156" y="1369.4292">username : String</text><text fill="#000000" font-family="sans-serif" font-size="11" lengthAdjust="spacingAndGlyphs" textLength="102" x="156" y="1382.2339">password : String</text><text fill="#000000" font-family="sans-serif" font-size="11" lengthAdjust="spacingAndGlyphs" textLength="134" x="156" y="1395.0386">reviews : Array[Integer]</text><text fill="#000000" font-family="sans-serif" font-size="11" lengthAdjust="spacingAndGlyphs" textLength="242" x="156" y="1407.8433">helpfulRatings : Array[&lt;Integer, Boolean&gt;]</text><text fill="#000000" font-family="sans-serif" font-size="11" lengthAdjust="spacingAndGlyphs" textLength="94" x="156" y="1420.6479">profilePic: String</text><text fill="#000000" font-family="sans-serif" font-size="11" lengthAdjust="spacingAndGlyphs" textLength="59" x="156" y="1433.4526">bio: String</text><text fill="#000000" font-family="sans-serif" font-size="11" lengthAdjust="spacingAndGlyphs" textLength="86" x="156" y="1446.2573">location: String</text><text fill="#000000" font-family="sans-serif" font-size="11" lengthAdjust="spacingAndGlyphs" textLength="68" x="156" y="1459.062">joined: Date</text><text fill="#000000" font-family="sans-serif" font-size="11" lengthAdjust="spacingAndGlyphs" textLength="99" x="156" y="1471.8667">isAdmin: Boolean</text><line style="stroke: #A80036; stroke-width: 1.5;" x1="151" x2="403" y1="1478.4609" y2="1478.4609"/><text fill="#000000" font-family="sans-serif" font-size="11" lengthAdjust="spacingAndGlyphs" textLength="57" x="156" y="1492.6714">User get()</text><text fill="#000000" font-family="sans-serif" font-size="11" lengthAdjust="spacingAndGlyphs" textLength="60" x="156" y="1505.4761">User add()</text><text fill="#000000" font-family="sans-serif" font-size="11" lengthAdjust="spacingAndGlyphs" textLength="60" x="156" y="1518.2808">User edit()</text><text fill="#000000" font-family="sans-serif" font-size="11" lengthAdjust="spacingAndGlyphs" textLength="92" x="156" y="1531.0854">boolean delete()</text><text fill="#000000" font-family="sans-serif" font-size="11" lengthAdjust="spacingAndGlyphs" textLength="129" x="156" y="1543.8901">Array[User] getUsers()</text><!--MD5=[deb4e1f6eb1e3c1256fdb830f96abfbb]
class Country--><rect fill="#FEFECE" filter="url(#feev3ciwcskw8)" height="150.4375" id="Country" style="stroke: #A80036; stroke-width: 1.5;" width="201" x="1430.5" y="197"/><ellipse cx="1502.75" cy="213" fill="#ADD1B2" rx="11" ry="11" style="stroke: #A80036; stroke-width: 1.0;"/><path d="M1505.0938,208.6719 L1505.2656,208.75 C1505.4844,208.4375 1505.6875,208.3438 1505.9844,208.3438 C1506.2813,208.3438 1506.5625,208.4844 1506.7188,208.75 C1506.8125,208.9063 1506.8281,209.0313 1506.8281,209.4688 L1506.8281,210.8906 C1506.8281,211.3125 1506.7969,211.5 1506.6875,211.6563 C1506.5156,211.875 1506.25,212.0156 1505.9844,212.0156 C1505.7656,212.0156 1505.5313,211.9063 1505.3906,211.7656 C1505.25,211.6406 1505.2188,211.5156 1505.1563,211.1094 C1505.0625,210.7031 1504.8906,210.4844 1504.4063,210.2031 C1503.9375,209.9531 1503.3281,209.7969 1502.75,209.7969 C1501.0156,209.7969 1499.7656,211.1094 1499.7656,212.8906 L1499.7656,213.9844 C1499.7656,215.6875 1501.0625,216.7813 1503.1094,216.7813 C1503.875,216.7813 1504.5625,216.6563 1504.9844,216.3906 C1505.1719,216.2969 1505.1719,216.2969 1505.625,215.8125 C1505.8125,215.625 1506.0156,215.5469 1506.2344,215.5469 C1506.7031,215.5469 1507.0938,215.9375 1507.0938,216.3906 C1507.0938,216.7813 1506.7656,217.2344 1506.1875,217.6406 C1505.4375,218.1875 1504.2813,218.4844 1503.0625,218.4844 C1500.1719,218.4844 1498.0625,216.5938 1498.0625,214.0156 L1498.0625,212.8906 C1498.0625,210.1719 1500.0625,208.0938 1502.6875,208.0938 C1503.5625,208.0938 1504.1563,208.2344 1505.0938,208.6719 Z "/><text fill="#000000" font-family="sans-serif" font-size="12" lengthAdjust="spacingAndGlyphs" textLength="48" x="1523.25" y="217.1543">Country</text><line style="stroke: #A80036; stroke-width: 1.5;" x1="1431.5" x2="1630.5" y1="229" y2="229"/><text fill="#000000" font-family="sans-serif" font-size="11" lengthAdjust="spacingAndGlyphs" textLength="78" x="1436.5" y="243.2104">name : String</text><text fill="#000000" font-family="sans-serif" font-size="11" lengthAdjust="spacingAndGlyphs" textLength="78" x="1436.5" y="256.0151">about : String</text><text fill="#000000" font-family="sans-serif" font-size="11" lengthAdjust="spacingAndGlyphs" textLength="180" x="1436.5" y="268.8198">destinations: Array[Destination]</text><line style="stroke: #A80036; stroke-width: 1.5;" x1="1431.5" x2="1630.5" y1="275.4141" y2="275.4141"/><text fill="#000000" font-family="sans-serif" font-size="11" lengthAdjust="spacingAndGlyphs" textLength="74" x="1436.5" y="289.6245">Country get()</text><text fill="#000000" font-family="sans-serif" font-size="11" lengthAdjust="spacingAndGlyphs" textLength="77" x="1436.5" y="302.4292">Country edit()</text><text fill="#000000" font-family="sans-serif" font-size="11" lengthAdjust="spacingAndGlyphs" textLength="167" x="1436.5" y="315.2339">Array[Country] getCountries()</text><text fill="#000000" font-family="sans-serif" font-size="11" lengthAdjust="spacingAndGlyphs" textLength="189" x="1436.5" y="328.0386">Array[Country] getCountriesLike()</text><text fill="#000000" font-family="sans-serif" font-size="11" lengthAdjust="spacingAndGlyphs" textLength="188" x="1436.5" y="340.8433">Array[Country] getTopCountries()</text><!--MD5=[18a836c23c0e4d04592ec32f5657da5f]
class Destination--><rect fill="#FEFECE" filter="url(#feev3ciwcskw8)" height="227.2656" id="Destination" style="stroke: #A80036; stroke-width: 1.5;" width="237" x="1099.5" y="424"/><ellipse cx="1177.75" cy="440" fill="#ADD1B2" rx="11" ry="11" style="stroke: #A80036; stroke-width: 1.0;"/><path d="M1180.0938,435.6719 L1180.2656,435.75 C1180.4844,435.4375 1180.6875,435.3438 1180.9844,435.3438 C1181.2813,435.3438 1181.5625,435.4844 1181.7188,435.75 C1181.8125,435.9063 1181.8281,436.0313 1181.8281,436.4688 L1181.8281,437.8906 C1181.8281,438.3125 1181.7969,438.5 1181.6875,438.6563 C1181.5156,438.875 1181.25,439.0156 1180.9844,439.0156 C1180.7656,439.0156 1180.5313,438.9063 1180.3906,438.7656 C1180.25,438.6406 1180.2188,438.5156 1180.1563,438.1094 C1180.0625,437.7031 1179.8906,437.4844 1179.4063,437.2031 C1178.9375,436.9531 1178.3281,436.7969 1177.75,436.7969 C1176.0156,436.7969 1174.7656,438.1094 1174.7656,439.8906 L1174.7656,440.9844 C1174.7656,442.6875 1176.0625,443.7813 1178.1094,443.7813 C1178.875,443.7813 1179.5625,443.6563 1179.9844,443.3906 C1180.1719,443.2969 1180.1719,443.2969 1180.625,442.8125 C1180.8125,442.625 1181.0156,442.5469 1181.2344,442.5469 C1181.7031,442.5469 1182.0938,442.9375 1182.0938,443.3906 C1182.0938,443.7813 1181.7656,444.2344 1181.1875,444.6406 C1180.4375,445.1875 1179.2813,445.4844 1178.0625,445.4844 C1175.1719,445.4844 1173.0625,443.5938 1173.0625,441.0156 L1173.0625,439.8906 C1173.0625,437.1719 1175.0625,435.0938 1177.6875,435.0938 C1178.5625,435.0938 1179.1563,435.2344 1180.0938,435.6719 Z "/><text fill="#000000" font-family="sans-serif" font-size="12" lengthAdjust="spacingAndGlyphs" textLength="72" x="1198.25" y="444.1543">Destination</text><line style="stroke: #A80036; stroke-width: 1.5;" x1="1100.5" x2="1335.5" y1="456" y2="456"/><text fill="#000000" font-family="sans-serif" font-size="11" lengthAdjust="spacingAndGlyphs" textLength="62" x="1105.5" y="470.2104">id : Integer</text><text fill="#000000" font-family="sans-serif" font-size="11" lengthAdjust="spacingAndGlyphs" textLength="99" x="1105.5" y="483.0151">creatorId: Integer</text><text fill="#000000" font-family="sans-serif" font-size="11" lengthAdjust="spacingAndGlyphs" textLength="78" x="1105.5" y="495.8198">name : String</text><text fill="#000000" font-family="sans-serif" font-size="11" lengthAdjust="spacingAndGlyphs" textLength="88" x="1105.5" y="508.6245">country : String</text><text fill="#000000" font-family="sans-serif" font-size="11" lengthAdjust="spacingAndGlyphs" textLength="65" x="1105.5" y="521.4292">stars: Float</text><text fill="#000000" font-family="sans-serif" font-size="11" lengthAdjust="spacingAndGlyphs" textLength="129" x="1105.5" y="534.2339">reviews: Array[Review]</text><text fill="#000000" font-family="sans-serif" font-size="11" lengthAdjust="spacingAndGlyphs" textLength="104" x="1105.5" y="547.0386">spamScore : Float</text><line style="stroke: #A80036; stroke-width: 1.5;" x1="1100.5" x2="1335.5" y1="553.6328" y2="553.6328"/><text fill="#000000" font-family="sans-serif" font-size="11" lengthAdjust="spacingAndGlyphs" textLength="97" x="1105.5" y="567.8433">Destination add()</text><text fill="#000000" font-family="sans-serif" font-size="11" lengthAdjust="spacingAndGlyphs" textLength="96" x="1105.5" y="580.6479">boolean update()</text><text fill="#000000" font-family="sans-serif" font-size="11" lengthAdjust="spacingAndGlyphs" textLength="92" x="1105.5" y="593.4526">boolean delete()</text><text fill="#000000" font-family="sans-serif" font-size="11" lengthAdjust="spacingAndGlyphs" textLength="94" x="1105.5" y="606.2573">Destination get()</text><text fill="#000000" font-family="sans-serif" font-size="11" lengthAdjust="spacingAndGlyphs" textLength="224" x="1105.5" y="619.062">Array[Destination] getTopDestinations()</text><text fill="#000000" font-family="sans-serif" font-size="11" lengthAdjust="spacingAndGlyphs" textLength="203" x="1105.5" y="631.8667">Array[Destination] getDestinations()</text><text fill="#000000" font-family="sans-serif" font-size="11" lengthAdjust="spacingAndGlyphs" textLength="225" x="1105.5" y="644.6714">Array[Destination] getDestinationsLike()</text><!--MD5=[eb0e8f8ddfdc21c3fdb48447501fec67]
class Review--><rect fill="#FEFECE" filter="url(#feev3ciwcskw8)" height="227.2656" id="Review" style="stroke: #A80036; stroke-width: 1.5;" width="186" x="833" y="728"/><ellipse cx="900.75" cy="744" fill="#ADD1B2" rx="11" ry="11" style="stroke: #A80036; stroke-width: 1.0;"/><path d="M903.0938,739.6719 L903.2656,739.75 C903.4844,739.4375 903.6875,739.3438 903.9844,739.3438 C904.2813,739.3438 904.5625,739.4844 904.7188,739.75 C904.8125,739.9063 904.8281,740.0313 904.8281,740.4688 L904.8281,741.8906 C904.8281,742.3125 904.7969,742.5 904.6875,742.6563 C904.5156,742.875 904.25,743.0156 903.9844,743.0156 C903.7656,743.0156 903.5313,742.9063 903.3906,742.7656 C903.25,742.6406 903.2188,742.5156 903.1563,742.1094 C903.0625,741.7031 902.8906,741.4844 902.4063,741.2031 C901.9375,740.9531 901.3281,740.7969 900.75,740.7969 C899.0156,740.7969 897.7656,742.1094 897.7656,743.8906 L897.7656,744.9844 C897.7656,746.6875 899.0625,747.7813 901.1094,747.7813 C901.875,747.7813 902.5625,747.6563 902.9844,747.3906 C903.1719,747.2969 903.1719,747.2969 903.625,746.8125 C903.8125,746.625 904.0156,746.5469 904.2344,746.5469 C904.7031,746.5469 905.0938,746.9375 905.0938,747.3906 C905.0938,747.7813 904.7656,748.2344 904.1875,748.6406 C903.4375,749.1875 902.2813,749.4844 901.0625,749.4844 C898.1719,749.4844 896.0625,747.5938 896.0625,745.0156 L896.0625,743.8906 C896.0625,741.1719 898.0625,739.0938 900.6875,739.0938 C901.5625,739.0938 902.1563,739.2344 903.0938,739.6719 Z "/><text fill="#000000" font-family="sans-serif" font-size="12" lengthAdjust="spacingAndGlyphs" textLength="42" x="921.25" y="748.1543">Review</text><line style="stroke: #A80036; stroke-width: 1.5;" x1="834" x2="1018" y1="760" y2="760"/><text fill="#000000" font-family="sans-serif" font-size="11" lengthAdjust="spacingAndGlyphs" textLength="62" x="839" y="774.2104">id : Integer</text><text fill="#000000" font-family="sans-serif" font-size="11" lengthAdjust="spacingAndGlyphs" textLength="125" x="839" y="787.0151">destinationId : Integer</text><text fill="#000000" font-family="sans-serif" font-size="11" lengthAdjust="spacingAndGlyphs" textLength="67" x="839" y="799.8198">title : String</text><text fill="#000000" font-family="sans-serif" font-size="11" lengthAdjust="spacingAndGlyphs" textLength="88" x="839" y="812.6245">content : String</text><text fill="#000000" font-family="sans-serif" font-size="11" lengthAdjust="spacingAndGlyphs" textLength="82" x="839" y="825.4292">stars : Integer</text><text fill="#000000" font-family="sans-serif" font-size="11" lengthAdjust="spacingAndGlyphs" textLength="154" x="839" y="838.2339">reviewRating: ReviewRating</text><text fill="#000000" font-family="sans-serif" font-size="11" lengthAdjust="spacingAndGlyphs" textLength="99" x="839" y="851.0386">creatorId: Integer</text><text fill="#000000" font-family="sans-serif" font-size="11" lengthAdjust="spacingAndGlyphs" textLength="100" x="839" y="863.8433">spamScore: Float</text><line style="stroke: #A80036; stroke-width: 1.5;" x1="834" x2="1018" y1="870.4375" y2="870.4375"/><text fill="#000000" font-family="sans-serif" font-size="11" lengthAdjust="spacingAndGlyphs" textLength="72" x="839" y="884.6479">Review add()</text><text fill="#000000" font-family="sans-serif" font-size="11" lengthAdjust="spacingAndGlyphs" textLength="78" x="839" y="897.4526">boolean edit()</text><text fill="#000000" font-family="sans-serif" font-size="11" lengthAdjust="spacingAndGlyphs" textLength="92" x="839" y="910.2573">boolean delete()</text><text fill="#000000" font-family="sans-serif" font-size="11" lengthAdjust="spacingAndGlyphs" textLength="69" x="839" y="923.062">Review get()</text><text fill="#000000" font-family="sans-serif" font-size="11" lengthAdjust="spacingAndGlyphs" textLength="174" x="839" y="935.8667">Array[Review] getTopReviews()</text><text fill="#000000" font-family="sans-serif" font-size="11" lengthAdjust="spacingAndGlyphs" textLength="153" x="839" y="948.6714">Array[Review] getReviews()</text><!--MD5=[4b2266a95ec6be8fabc5b3fb580cc464]
class ReviewRating--><rect fill="#FEFECE" filter="url(#feev3ciwcskw8)" height="163.2422" id="ReviewRating" style="stroke: #A80036; stroke-width: 1.5;" width="151" x="817.5" y="1032"/><ellipse cx="849.15" cy="1048" fill="#ADD1B2" rx="11" ry="11" style="stroke: #A80036; stroke-width: 1.0;"/><path d="M851.4938,1043.6719 L851.6656,1043.75 C851.8844,1043.4375 852.0875,1043.3438 852.3844,1043.3438 C852.6813,1043.3438 852.9625,1043.4844 853.1188,1043.75 C853.2125,1043.9063 853.2281,1044.0313 853.2281,1044.4688 L853.2281,1045.8906 C853.2281,1046.3125 853.1969,1046.5 853.0875,1046.6563 C852.9156,1046.875 852.65,1047.0156 852.3844,1047.0156 C852.1656,1047.0156 851.9313,1046.9063 851.7906,1046.7656 C851.65,1046.6406 851.6188,1046.5156 851.5563,1046.1094 C851.4625,1045.7031 851.2906,1045.4844 850.8063,1045.2031 C850.3375,1044.9531 849.7281,1044.7969 849.15,1044.7969 C847.4156,1044.7969 846.1656,1046.1094 846.1656,1047.8906 L846.1656,1048.9844 C846.1656,1050.6875 847.4625,1051.7813 849.5094,1051.7813 C850.275,1051.7813 850.9625,1051.6563 851.3844,1051.3906 C851.5719,1051.2969 851.5719,1051.2969 852.025,1050.8125 C852.2125,1050.625 852.4156,1050.5469 852.6344,1050.5469 C853.1031,1050.5469 853.4938,1050.9375 853.4938,1051.3906 C853.4938,1051.7813 853.1656,1052.2344 852.5875,1052.6406 C851.8375,1053.1875 850.6813,1053.4844 849.4625,1053.4844 C846.5719,1053.4844 844.4625,1051.5938 844.4625,1049.0156 L844.4625,1047.8906 C844.4625,1045.1719 846.4625,1043.0938 849.0875,1043.0938 C849.9625,1043.0938 850.5563,1043.2344 851.4938,1043.6719 Z "/><text fill="#000000" font-family="sans-serif" font-size="12" lengthAdjust="spacingAndGlyphs" textLength="82" x="866.85" y="1052.1543">ReviewRating</text><line style="stroke: #A80036; stroke-width: 1.5;" x1="818.5" x2="967.5" y1="1064" y2="1064"/><text fill="#000000" font-family="sans-serif" font-size="11" lengthAdjust="spacingAndGlyphs" textLength="89" x="823.5" y="1078.2104">review : Integer</text><text fill="#000000" font-family="sans-serif" font-size="11" lengthAdjust="spacingAndGlyphs" textLength="97" x="823.5" y="1091.0151">upvotes : Integer</text><text fill="#000000" font-family="sans-serif" font-size="11" lengthAdjust="spacingAndGlyphs" textLength="113" x="823.5" y="1103.8198">downvotes : Integer</text><text fill="#000000" font-family="sans-serif" font-size="11" lengthAdjust="spacingAndGlyphs" textLength="123" x="823.5" y="1116.6245">upvoters: Array[User]</text><text fill="#000000" font-family="sans-serif" font-size="11" lengthAdjust="spacingAndGlyphs" textLength="139" x="823.5" y="1129.4292">downvoters: Array[User]</text><line style="stroke: #A80036; stroke-width: 1.5;" x1="818.5" x2="967.5" y1="1136.0234" y2="1136.0234"/><text fill="#000000" font-family="sans-serif" font-size="11" lengthAdjust="spacingAndGlyphs" textLength="104" x="823.5" y="1150.2339">ReviewRating get()</text><text fill="#000000" font-family="sans-serif" font-size="11" lengthAdjust="spacingAndGlyphs" textLength="107" x="823.5" y="1163.0386">ReviewRating edit()</text><text fill="#000000" font-family="sans-serif" font-size="11" lengthAdjust="spacingAndGlyphs" textLength="107" x="823.5" y="1175.8433">ReviewRating add()</text><text fill="#000000" font-family="sans-serif" font-size="11" lengthAdjust="spacingAndGlyphs" textLength="92" x="823.5" y="1188.6479">boolean delete()</text><!--MD5=[c8e4024a0ad809850a1cec812afe828b]
class FeedController--><rect fill="#FEFECE" filter="url(#feev3ciwcskw8)" height="112.0234" id="FeedController" style="stroke: #A80036; stroke-width: 1.5;" width="172" x="711" y="8"/><ellipse cx="747.6" cy="24" fill="#ADD1B2" rx="11" ry="11" style="stroke: #A80036; stroke-width: 1.0;"/><path d="M749.9438,19.6719 L750.1156,19.75 C750.3344,19.4375 750.5375,19.3438 750.8344,19.3438 C751.1313,19.3438 751.4125,19.4844 751.5688,19.75 C751.6625,19.9063 751.6781,20.0313 751.6781,20.4688 L751.6781,21.8906 C751.6781,22.3125 751.6469,22.5 751.5375,22.6563 C751.3656,22.875 751.1,23.0156 750.8344,23.0156 C750.6156,23.0156 750.3813,22.9063 750.2406,22.7656 C750.1,22.6406 750.0688,22.5156 750.0063,22.1094 C749.9125,21.7031 749.7406,21.4844 749.2563,21.2031 C748.7875,20.9531 748.1781,20.7969 747.6,20.7969 C745.8656,20.7969 744.6156,22.1094 744.6156,23.8906 L744.6156,24.9844 C744.6156,26.6875 745.9125,27.7813 747.9594,27.7813 C748.725,27.7813 749.4125,27.6563 749.8344,27.3906 C750.0219,27.2969 750.0219,27.2969 750.475,26.8125 C750.6625,26.625 750.8656,26.5469 751.0844,26.5469 C751.5531,26.5469 751.9438,26.9375 751.9438,27.3906 C751.9438,27.7813 751.6156,28.2344 751.0375,28.6406 C750.2875,29.1875 749.1313,29.4844 747.9125,29.4844 C745.0219,29.4844 742.9125,27.5938 742.9125,25.0156 L742.9125,23.8906 C742.9125,21.1719 744.9125,19.0938 747.5375,19.0938 C748.4125,19.0938 749.0063,19.2344 749.9438,19.6719 Z "/><text fill="#000000" font-family="sans-serif" font-size="12" lengthAdjust="spacingAndGlyphs" textLength="92" x="766.4" y="28.1543">FeedController</text><line style="stroke: #A80036; stroke-width: 1.5;" x1="712" x2="882" y1="40" y2="40"/><text fill="#000000" font-family="sans-serif" font-size="11" lengthAdjust="spacingAndGlyphs" textLength="65" x="717" y="54.2104">user : User</text><text fill="#000000" font-family="sans-serif" font-size="11" lengthAdjust="spacingAndGlyphs" textLength="83" x="717" y="67.0151">sorter : Sorter</text><text fill="#000000" font-family="sans-serif" font-size="11" lengthAdjust="spacingAndGlyphs" textLength="160" x="717" y="79.8198">destinations : Array[Integer]</text><text fill="#000000" font-family="sans-serif" font-size="11" lengthAdjust="spacingAndGlyphs" textLength="147" x="717" y="92.6245">countries : Array[Country]</text><line style="stroke: #A80036; stroke-width: 1.5;" x1="712" x2="882" y1="99.2188" y2="99.2188"/><text fill="#000000" font-family="sans-serif" font-size="11" lengthAdjust="spacingAndGlyphs" textLength="84" x="717" y="113.4292">Feed getFeed()</text><!--MD5=[5103e3471bf31fadd75905833dcba617]
class LoginController--><rect fill="#FEFECE" filter="url(#feev3ciwcskw8)" height="60.8047" id="LoginController" style="stroke: #A80036; stroke-width: 1.5;" width="126" x="66" y="241.5"/><ellipse cx="81" cy="257.5" fill="#ADD1B2" rx="11" ry="11" style="stroke: #A80036; stroke-width: 1.0;"/><path d="M83.3438,253.1719 L83.5156,253.25 C83.7344,252.9375 83.9375,252.8438 84.2344,252.8438 C84.5313,252.8438 84.8125,252.9844 84.9688,253.25 C85.0625,253.4063 85.0781,253.5313 85.0781,253.9688 L85.0781,255.3906 C85.0781,255.8125 85.0469,256 84.9375,256.1563 C84.7656,256.375 84.5,256.5156 84.2344,256.5156 C84.0156,256.5156 83.7813,256.4063 83.6406,256.2656 C83.5,256.1406 83.4688,256.0156 83.4063,255.6094 C83.3125,255.2031 83.1406,254.9844 82.6563,254.7031 C82.1875,254.4531 81.5781,254.2969 81,254.2969 C79.2656,254.2969 78.0156,255.6094 78.0156,257.3906 L78.0156,258.4844 C78.0156,260.1875 79.3125,261.2813 81.3594,261.2813 C82.125,261.2813 82.8125,261.1563 83.2344,260.8906 C83.4219,260.7969 83.4219,260.7969 83.875,260.3125 C84.0625,260.125 84.2656,260.0469 84.4844,260.0469 C84.9531,260.0469 85.3438,260.4375 85.3438,260.8906 C85.3438,261.2813 85.0156,261.7344 84.4375,262.1406 C83.6875,262.6875 82.5313,262.9844 81.3125,262.9844 C78.4219,262.9844 76.3125,261.0938 76.3125,258.5156 L76.3125,257.3906 C76.3125,254.6719 78.3125,252.5938 80.9375,252.5938 C81.8125,252.5938 82.4063,252.7344 83.3438,253.1719 Z "/><text fill="#000000" font-family="sans-serif" font-size="12" lengthAdjust="spacingAndGlyphs" textLength="94" x="95" y="261.6543">LoginController</text><line style="stroke: #A80036; stroke-width: 1.5;" x1="67" x2="191" y1="273.5" y2="273.5"/><line style="stroke: #A80036; stroke-width: 1.5;" x1="67" x2="191" y1="281.5" y2="281.5"/><text fill="#000000" font-family="sans-serif" font-size="11" lengthAdjust="spacingAndGlyphs" textLength="100" x="72" y="295.7104">User selectUser()</text><!--MD5=[9b5fb049a6d120623330ebd11ddb0c02]
class SignUpController--><rect fill="#FEFECE" filter="url(#feev3ciwcskw8)" height="60.8047" id="SignUpController" style="stroke: #A80036; stroke-width: 1.5;" width="137" x="147.5" y="1083"/><ellipse cx="162.5" cy="1099" fill="#ADD1B2" rx="11" ry="11" style="stroke: #A80036; stroke-width: 1.0;"/><path d="M164.8438,1094.6719 L165.0156,1094.75 C165.2344,1094.4375 165.4375,1094.3438 165.7344,1094.3438 C166.0313,1094.3438 166.3125,1094.4844 166.4688,1094.75 C166.5625,1094.9063 166.5781,1095.0313 166.5781,1095.4688 L166.5781,1096.8906 C166.5781,1097.3125 166.5469,1097.5 166.4375,1097.6563 C166.2656,1097.875 166,1098.0156 165.7344,1098.0156 C165.5156,1098.0156 165.2813,1097.9063 165.1406,1097.7656 C165,1097.6406 164.9688,1097.5156 164.9063,1097.1094 C164.8125,1096.7031 164.6406,1096.4844 164.1563,1096.2031 C163.6875,1095.9531 163.0781,1095.7969 162.5,1095.7969 C160.7656,1095.7969 159.5156,1097.1094 159.5156,1098.8906 L159.5156,1099.9844 C159.5156,1101.6875 160.8125,1102.7813 162.8594,1102.7813 C163.625,1102.7813 164.3125,1102.6563 164.7344,1102.3906 C164.9219,1102.2969 164.9219,1102.2969 165.375,1101.8125 C165.5625,1101.625 165.7656,1101.5469 165.9844,1101.5469 C166.4531,1101.5469 166.8438,1101.9375 166.8438,1102.3906 C166.8438,1102.7813 166.5156,1103.2344 165.9375,1103.6406 C165.1875,1104.1875 164.0313,1104.4844 162.8125,1104.4844 C159.9219,1104.4844 157.8125,1102.5938 157.8125,1100.0156 L157.8125,1098.8906 C157.8125,1096.1719 159.8125,1094.0938 162.4375,1094.0938 C163.3125,1094.0938 163.9063,1094.2344 164.8438,1094.6719 Z "/><text fill="#000000" font-family="sans-serif" font-size="12" lengthAdjust="spacingAndGlyphs" textLength="105" x="176.5" y="1103.1543">SignUpController</text><line style="stroke: #A80036; stroke-width: 1.5;" x1="148.5" x2="283.5" y1="1115" y2="1115"/><line style="stroke: #A80036; stroke-width: 1.5;" x1="148.5" x2="283.5" y1="1123" y2="1123"/><text fill="#000000" font-family="sans-serif" font-size="11" lengthAdjust="spacingAndGlyphs" textLength="102" x="153.5" y="1137.2104">User createUser()</text><!--MD5=[ba4b3a21b82b5b1922f6a1f65058143c]
class AccountController--><rect fill="#FEFECE" filter="url(#feev3ciwcskw8)" height="86.4141" id="AccountController" style="stroke: #A80036; stroke-width: 1.5;" width="161" x="231.5" y="229"/><ellipse cx="254.15" cy="245" fill="#ADD1B2" rx="11" ry="11" style="stroke: #A80036; stroke-width: 1.0;"/><path d="M256.4938,240.6719 L256.6656,240.75 C256.8844,240.4375 257.0875,240.3438 257.3844,240.3438 C257.6813,240.3438 257.9625,240.4844 258.1188,240.75 C258.2125,240.9063 258.2281,241.0313 258.2281,241.4688 L258.2281,242.8906 C258.2281,243.3125 258.1969,243.5 258.0875,243.6563 C257.9156,243.875 257.65,244.0156 257.3844,244.0156 C257.1656,244.0156 256.9313,243.9063 256.7906,243.7656 C256.65,243.6406 256.6188,243.5156 256.5563,243.1094 C256.4625,242.7031 256.2906,242.4844 255.8063,242.2031 C255.3375,241.9531 254.7281,241.7969 254.15,241.7969 C252.4156,241.7969 251.1656,243.1094 251.1656,244.8906 L251.1656,245.9844 C251.1656,247.6875 252.4625,248.7813 254.5094,248.7813 C255.275,248.7813 255.9625,248.6563 256.3844,248.3906 C256.5719,248.2969 256.5719,248.2969 257.025,247.8125 C257.2125,247.625 257.4156,247.5469 257.6344,247.5469 C258.1031,247.5469 258.4938,247.9375 258.4938,248.3906 C258.4938,248.7813 258.1656,249.2344 257.5875,249.6406 C256.8375,250.1875 255.6813,250.4844 254.4625,250.4844 C251.5719,250.4844 249.4625,248.5938 249.4625,246.0156 L249.4625,244.8906 C249.4625,242.1719 251.4625,240.0938 254.0875,240.0938 C254.9625,240.0938 255.5563,240.2344 256.4938,240.6719 Z "/><text fill="#000000" font-family="sans-serif" font-size="12" lengthAdjust="spacingAndGlyphs" textLength="112" x="269.85" y="249.1543">AccountController</text><line style="stroke: #A80036; stroke-width: 1.5;" x1="232.5" x2="391.5" y1="261" y2="261"/><line style="stroke: #A80036; stroke-width: 1.5;" x1="232.5" x2="391.5" y1="269" y2="269"/><text fill="#000000" font-family="sans-serif" font-size="11" lengthAdjust="spacingAndGlyphs" textLength="110" x="237.5" y="283.2104">User getUserData()</text><text fill="#000000" font-family="sans-serif" font-size="11" lengthAdjust="spacingAndGlyphs" textLength="149" x="237.5" y="296.0151">boolean updateUserData()</text><text fill="#000000" font-family="sans-serif" font-size="11" lengthAdjust="spacingAndGlyphs" textLength="119" x="237.5" y="308.8198">boolean deleteUser()</text><!--MD5=[18128de1fe664899f0e69258e7bde033]
class CountryController--><rect fill="#FEFECE" filter="url(#feev3ciwcskw8)" height="60.8047" id="CountryController" style="stroke: #A80036; stroke-width: 1.5;" width="141" x="1478.5" y="33.5"/><ellipse cx="1493.5" cy="49.5" fill="#ADD1B2" rx="11" ry="11" style="stroke: #A80036; stroke-width: 1.0;"/><path d="M1495.8438,45.1719 L1496.0156,45.25 C1496.2344,44.9375 1496.4375,44.8438 1496.7344,44.8438 C1497.0313,44.8438 1497.3125,44.9844 1497.4688,45.25 C1497.5625,45.4063 1497.5781,45.5313 1497.5781,45.9688 L1497.5781,47.3906 C1497.5781,47.8125 1497.5469,48 1497.4375,48.1563 C1497.2656,48.375 1497,48.5156 1496.7344,48.5156 C1496.5156,48.5156 1496.2813,48.4063 1496.1406,48.2656 C1496,48.1406 1495.9688,48.0156 1495.9063,47.6094 C1495.8125,47.2031 1495.6406,46.9844 1495.1563,46.7031 C1494.6875,46.4531 1494.0781,46.2969 1493.5,46.2969 C1491.7656,46.2969 1490.5156,47.6094 1490.5156,49.3906 L1490.5156,50.4844 C1490.5156,52.1875 1491.8125,53.2813 1493.8594,53.2813 C1494.625,53.2813 1495.3125,53.1563 1495.7344,52.8906 C1495.9219,52.7969 1495.9219,52.7969 1496.375,52.3125 C1496.5625,52.125 1496.7656,52.0469 1496.9844,52.0469 C1497.4531,52.0469 1497.8438,52.4375 1497.8438,52.8906 C1497.8438,53.2813 1497.5156,53.7344 1496.9375,54.1406 C1496.1875,54.6875 1495.0313,54.9844 1493.8125,54.9844 C1490.9219,54.9844 1488.8125,53.0938 1488.8125,50.5156 L1488.8125,49.3906 C1488.8125,46.6719 1490.8125,44.5938 1493.4375,44.5938 C1494.3125,44.5938 1494.9063,44.7344 1495.8438,45.1719 Z "/><text fill="#000000" font-family="sans-serif" font-size="12" lengthAdjust="spacingAndGlyphs" textLength="109" x="1507.5" y="53.6543">CountryController</text><line style="stroke: #A80036; stroke-width: 1.5;" x1="1479.5" x2="1618.5" y1="65.5" y2="65.5"/><line style="stroke: #A80036; stroke-width: 1.5;" x1="1479.5" x2="1618.5" y1="73.5" y2="73.5"/><text fill="#000000" font-family="sans-serif" font-size="11" lengthAdjust="spacingAndGlyphs" textLength="118" x="1484.5" y="87.7104">Country getCountry()</text><!--MD5=[a22be1687db9c4d9e530de22d0a3769b]
class DestinationController--><rect fill="#FEFECE" filter="url(#feev3ciwcskw8)" height="99.2188" id="DestinationController" style="stroke: #A80036; stroke-width: 1.5;" width="173" x="712.5" y="222.5"/><ellipse cx="731.1" cy="238.5" fill="#ADD1B2" rx="11" ry="11" style="stroke: #A80036; stroke-width: 1.0;"/><path d="M733.4438,234.1719 L733.6156,234.25 C733.8344,233.9375 734.0375,233.8438 734.3344,233.8438 C734.6313,233.8438 734.9125,233.9844 735.0688,234.25 C735.1625,234.4063 735.1781,234.5313 735.1781,234.9688 L735.1781,236.3906 C735.1781,236.8125 735.1469,237 735.0375,237.1563 C734.8656,237.375 734.6,237.5156 734.3344,237.5156 C734.1156,237.5156 733.8813,237.4063 733.7406,237.2656 C733.6,237.1406 733.5688,237.0156 733.5063,236.6094 C733.4125,236.2031 733.2406,235.9844 732.7563,235.7031 C732.2875,235.4531 731.6781,235.2969 731.1,235.2969 C729.3656,235.2969 728.1156,236.6094 728.1156,238.3906 L728.1156,239.4844 C728.1156,241.1875 729.4125,242.2813 731.4594,242.2813 C732.225,242.2813 732.9125,242.1563 733.3344,241.8906 C733.5219,241.7969 733.5219,241.7969 733.975,241.3125 C734.1625,241.125 734.3656,241.0469 734.5844,241.0469 C735.0531,241.0469 735.4438,241.4375 735.4438,241.8906 C735.4438,242.2813 735.1156,242.7344 734.5375,243.1406 C733.7875,243.6875 732.6313,243.9844 731.4125,243.9844 C728.5219,243.9844 726.4125,242.0938 726.4125,239.5156 L726.4125,238.3906 C726.4125,235.6719 728.4125,233.5938 731.0375,233.5938 C731.9125,233.5938 732.5063,233.7344 733.4438,234.1719 Z "/><text fill="#000000" font-family="sans-serif" font-size="12" lengthAdjust="spacingAndGlyphs" textLength="133" x="745.9" y="242.6543">DestinationController</text><line style="stroke: #A80036; stroke-width: 1.5;" x1="713.5" x2="884.5" y1="254.5" y2="254.5"/><line style="stroke: #A80036; stroke-width: 1.5;" x1="713.5" x2="884.5" y1="262.5" y2="262.5"/><text fill="#000000" font-family="sans-serif" font-size="11" lengthAdjust="spacingAndGlyphs" textLength="158" x="718.5" y="276.7104">Destination getDestination()</text><text fill="#000000" font-family="sans-serif" font-size="11" lengthAdjust="spacingAndGlyphs" textLength="161" x="718.5" y="289.5151">Destination addDestination()</text><text fill="#000000" font-family="sans-serif" font-size="11" lengthAdjust="spacingAndGlyphs" textLength="161" x="718.5" y="302.3198">Destination editDestination()</text><text fill="#000000" font-family="sans-serif" font-size="11" lengthAdjust="spacingAndGlyphs" textLength="156" x="718.5" y="315.1245">boolean deleteDestination()</text><!--MD5=[ee6344d516906ecc8b439ac61d539e0d]
class ReviewController--><rect fill="#FEFECE" filter="url(#feev3ciwcskw8)" height="99.2188" id="ReviewController" style="stroke: #A80036; stroke-width: 1.5;" width="143" x="534.5" y="222.5"/><ellipse cx="553.1" cy="238.5" fill="#ADD1B2" rx="11" ry="11" style="stroke: #A80036; stroke-width: 1.0;"/><path d="M555.4438,234.1719 L555.6156,234.25 C555.8344,233.9375 556.0375,233.8438 556.3344,233.8438 C556.6313,233.8438 556.9125,233.9844 557.0688,234.25 C557.1625,234.4063 557.1781,234.5313 557.1781,234.9688 L557.1781,236.3906 C557.1781,236.8125 557.1469,237 557.0375,237.1563 C556.8656,237.375 556.6,237.5156 556.3344,237.5156 C556.1156,237.5156 555.8813,237.4063 555.7406,237.2656 C555.6,237.1406 555.5688,237.0156 555.5063,236.6094 C555.4125,236.2031 555.2406,235.9844 554.7563,235.7031 C554.2875,235.4531 553.6781,235.2969 553.1,235.2969 C551.3656,235.2969 550.1156,236.6094 550.1156,238.3906 L550.1156,239.4844 C550.1156,241.1875 551.4125,242.2813 553.4594,242.2813 C554.225,242.2813 554.9125,242.1563 555.3344,241.8906 C555.5219,241.7969 555.5219,241.7969 555.975,241.3125 C556.1625,241.125 556.3656,241.0469 556.5844,241.0469 C557.0531,241.0469 557.4438,241.4375 557.4438,241.8906 C557.4438,242.2813 557.1156,242.7344 556.5375,243.1406 C555.7875,243.6875 554.6313,243.9844 553.4125,243.9844 C550.5219,243.9844 548.4125,242.0938 548.4125,239.5156 L548.4125,238.3906 C548.4125,235.6719 550.4125,233.5938 553.0375,233.5938 C553.9125,233.5938 554.5063,233.7344 555.4438,234.1719 Z "/><text fill="#000000" font-family="sans-serif" font-size="12" lengthAdjust="spacingAndGlyphs" textLength="103" x="567.9" y="242.6543">ReviewController</text><line style="stroke: #A80036; stroke-width: 1.5;" x1="535.5" x2="676.5" y1="254.5" y2="254.5"/><line style="stroke: #A80036; stroke-width: 1.5;" x1="535.5" x2="676.5" y1="262.5" y2="262.5"/><text fill="#000000" font-family="sans-serif" font-size="11" lengthAdjust="spacingAndGlyphs" textLength="108" x="540.5" y="276.7104">Review getReview()</text><text fill="#000000" font-family="sans-serif" font-size="11" lengthAdjust="spacingAndGlyphs" textLength="111" x="540.5" y="289.5151">Review addReview()</text><text fill="#000000" font-family="sans-serif" font-size="11" lengthAdjust="spacingAndGlyphs" textLength="111" x="540.5" y="302.3198">Review editReview()</text><text fill="#000000" font-family="sans-serif" font-size="11" lengthAdjust="spacingAndGlyphs" textLength="131" x="540.5" y="315.1245">boolean deleteReview()</text><!--MD5=[4b10d7a6977b22f9b7afa06230f82a98]
class AdminController--><rect fill="#FEFECE" filter="url(#feev3ciwcskw8)" height="73.6094" id="AdminController" style="stroke: #A80036; stroke-width: 1.5;" width="248" x="921" y="235"/><ellipse cx="991.25" cy="251" fill="#ADD1B2" rx="11" ry="11" style="stroke: #A80036; stroke-width: 1.0;"/><path d="M993.5938,246.6719 L993.7656,246.75 C993.9844,246.4375 994.1875,246.3438 994.4844,246.3438 C994.7813,246.3438 995.0625,246.4844 995.2188,246.75 C995.3125,246.9063 995.3281,247.0313 995.3281,247.4688 L995.3281,248.8906 C995.3281,249.3125 995.2969,249.5 995.1875,249.6563 C995.0156,249.875 994.75,250.0156 994.4844,250.0156 C994.2656,250.0156 994.0313,249.9063 993.8906,249.7656 C993.75,249.6406 993.7188,249.5156 993.6563,249.1094 C993.5625,248.7031 993.3906,248.4844 992.9063,248.2031 C992.4375,247.9531 991.8281,247.7969 991.25,247.7969 C989.5156,247.7969 988.2656,249.1094 988.2656,250.8906 L988.2656,251.9844 C988.2656,253.6875 989.5625,254.7813 991.6094,254.7813 C992.375,254.7813 993.0625,254.6563 993.4844,254.3906 C993.6719,254.2969 993.6719,254.2969 994.125,253.8125 C994.3125,253.625 994.5156,253.5469 994.7344,253.5469 C995.2031,253.5469 995.5938,253.9375 995.5938,254.3906 C995.5938,254.7813 995.2656,255.2344 994.6875,255.6406 C993.9375,256.1875 992.7813,256.4844 991.5625,256.4844 C988.6719,256.4844 986.5625,254.5938 986.5625,252.0156 L986.5625,250.8906 C986.5625,248.1719 988.5625,246.0938 991.1875,246.0938 C992.0625,246.0938 992.6563,246.2344 993.5938,246.6719 Z "/><text fill="#000000" font-family="sans-serif" font-size="12" lengthAdjust="spacingAndGlyphs" textLength="99" x="1011.75" y="255.1543">AdminController</text><line style="stroke: #A80036; stroke-width: 1.5;" x1="922" x2="1168" y1="267" y2="267"/><line style="stroke: #A80036; stroke-width: 1.5;" x1="922" x2="1168" y1="275" y2="275"/><text fill="#000000" font-family="sans-serif" font-size="11" lengthAdjust="spacingAndGlyphs" textLength="236" x="927" y="289.2104">Array[Destination] getSpamDestinations()</text><text fill="#000000" font-family="sans-serif" font-size="11" lengthAdjust="spacingAndGlyphs" textLength="186" x="927" y="302.0151">Array[Review] getSpamReviews()</text><!--MD5=[06781a53d152b74966533a6255748241]
class AuthMiddleware--><rect fill="#FEFECE" filter="url(#feev3ciwcskw8)" height="73.6094" id="AuthMiddleware" style="stroke: #A80036; stroke-width: 1.5;" width="131" x="406.5" y="500.5"/><ellipse cx="421.5" cy="516.5" fill="#ADD1B2" rx="11" ry="11" style="stroke: #A80036; stroke-width: 1.0;"/><path d="M423.8438,512.1719 L424.0156,512.25 C424.2344,511.9375 424.4375,511.8438 424.7344,511.8438 C425.0313,511.8438 425.3125,511.9844 425.4688,512.25 C425.5625,512.4063 425.5781,512.5313 425.5781,512.9688 L425.5781,514.3906 C425.5781,514.8125 425.5469,515 425.4375,515.1563 C425.2656,515.375 425,515.5156 424.7344,515.5156 C424.5156,515.5156 424.2813,515.4063 424.1406,515.2656 C424,515.1406 423.9688,515.0156 423.9063,514.6094 C423.8125,514.2031 423.6406,513.9844 423.1563,513.7031 C422.6875,513.4531 422.0781,513.2969 421.5,513.2969 C419.7656,513.2969 418.5156,514.6094 418.5156,516.3906 L418.5156,517.4844 C418.5156,519.1875 419.8125,520.2813 421.8594,520.2813 C422.625,520.2813 423.3125,520.1563 423.7344,519.8906 C423.9219,519.7969 423.9219,519.7969 424.375,519.3125 C424.5625,519.125 424.7656,519.0469 424.9844,519.0469 C425.4531,519.0469 425.8438,519.4375 425.8438,519.8906 C425.8438,520.2813 425.5156,520.7344 424.9375,521.1406 C424.1875,521.6875 423.0313,521.9844 421.8125,521.9844 C418.9219,521.9844 416.8125,520.0938 416.8125,517.5156 L416.8125,516.3906 C416.8125,513.6719 418.8125,511.5938 421.4375,511.5938 C422.3125,511.5938 422.9063,511.7344 423.8438,512.1719 Z "/><text fill="#000000" font-family="sans-serif" font-size="12" lengthAdjust="spacingAndGlyphs" textLength="99" x="435.5" y="520.6543">AuthMiddleware</text><line style="stroke: #A80036; stroke-width: 1.5;" x1="407.5" x2="536.5" y1="532.5" y2="532.5"/><line style="stroke: #A80036; stroke-width: 1.5;" x1="407.5" x2="536.5" y1="540.5" y2="540.5"/><text fill="#000000" font-family="sans-serif" font-size="11" lengthAdjust="spacingAndGlyphs" textLength="115" x="412.5" y="554.7104">boolean verifyUser()</text><text fill="#000000" font-family="sans-serif" font-size="11" lengthAdjust="spacingAndGlyphs" textLength="102" x="412.5" y="567.5151">boolean isAdmin()</text><!--MD5=[2eba06dd0e991185ec81b0e205ea5301]
class SearchController--><rect fill="#FEFECE" filter="url(#feev3ciwcskw8)" height="86.4141" id="SearchController" style="stroke: #A80036; stroke-width: 1.5;" width="190" x="1251" y="21"/><ellipse cx="1289.85" cy="37" fill="#ADD1B2" rx="11" ry="11" style="stroke: #A80036; stroke-width: 1.0;"/><path d="M1292.1938,32.6719 L1292.3656,32.75 C1292.5844,32.4375 1292.7875,32.3438 1293.0844,32.3438 C1293.3813,32.3438 1293.6625,32.4844 1293.8188,32.75 C1293.9125,32.9063 1293.9281,33.0313 1293.9281,33.4688 L1293.9281,34.8906 C1293.9281,35.3125 1293.8969,35.5 1293.7875,35.6563 C1293.6156,35.875 1293.35,36.0156 1293.0844,36.0156 C1292.8656,36.0156 1292.6313,35.9063 1292.4906,35.7656 C1292.35,35.6406 1292.3188,35.5156 1292.2563,35.1094 C1292.1625,34.7031 1291.9906,34.4844 1291.5063,34.2031 C1291.0375,33.9531 1290.4281,33.7969 1289.85,33.7969 C1288.1156,33.7969 1286.8656,35.1094 1286.8656,36.8906 L1286.8656,37.9844 C1286.8656,39.6875 1288.1625,40.7813 1290.2094,40.7813 C1290.975,40.7813 1291.6625,40.6563 1292.0844,40.3906 C1292.2719,40.2969 1292.2719,40.2969 1292.725,39.8125 C1292.9125,39.625 1293.1156,39.5469 1293.3344,39.5469 C1293.8031,39.5469 1294.1938,39.9375 1294.1938,40.3906 C1294.1938,40.7813 1293.8656,41.2344 1293.2875,41.6406 C1292.5375,42.1875 1291.3813,42.4844 1290.1625,42.4844 C1287.2719,42.4844 1285.1625,40.5938 1285.1625,38.0156 L1285.1625,36.8906 C1285.1625,34.1719 1287.1625,32.0938 1289.7875,32.0938 C1290.6625,32.0938 1291.2563,32.2344 1292.1938,32.6719 Z "/><text fill="#000000" font-family="sans-serif" font-size="12" lengthAdjust="spacingAndGlyphs" textLength="105" x="1309.15" y="41.1543">SearchController</text><line style="stroke: #A80036; stroke-width: 1.5;" x1="1252" x2="1440" y1="53" y2="53"/><text fill="#000000" font-family="sans-serif" font-size="11" lengthAdjust="spacingAndGlyphs" textLength="74" x="1257" y="67.2104">input : String</text><line style="stroke: #A80036; stroke-width: 1.5;" x1="1252" x2="1440" y1="73.8047" y2="73.8047"/><text fill="#000000" font-family="sans-serif" font-size="11" lengthAdjust="spacingAndGlyphs" textLength="178" x="1257" y="88.0151">Array[Review] getSuggestions()</text><text fill="#000000" font-family="sans-serif" font-size="11" lengthAdjust="spacingAndGlyphs" textLength="149" x="1257" y="100.8198">Array[Review] getResults()</text><!--MD5=[0e1d20a126816a6724fa9ec038c6e137]
class SpamDetector--><rect fill="#FEFECE" filter="url(#feev3ciwcskw8)" height="112.0234" id="SpamDetector" style="stroke: #A80036; stroke-width: 1.5;" width="151" x="1003.5" y="1057.5"/><ellipse cx="1031.55" cy="1073.5" fill="#ADD1B2" rx="11" ry="11" style="stroke: #A80036; stroke-width: 1.0;"/><path d="M1033.8938,1069.1719 L1034.0656,1069.25 C1034.2844,1068.9375 1034.4875,1068.8438 1034.7844,1068.8438 C1035.0813,1068.8438 1035.3625,1068.9844 1035.5188,1069.25 C1035.6125,1069.4063 1035.6281,1069.5313 1035.6281,1069.9688 L1035.6281,1071.3906 C1035.6281,1071.8125 1035.5969,1072 1035.4875,1072.1563 C1035.3156,1072.375 1035.05,1072.5156 1034.7844,1072.5156 C1034.5656,1072.5156 1034.3313,1072.4063 1034.1906,1072.2656 C1034.05,1072.1406 1034.0188,1072.0156 1033.9563,1071.6094 C1033.8625,1071.2031 1033.6906,1070.9844 1033.2063,1070.7031 C1032.7375,1070.4531 1032.1281,1070.2969 1031.55,1070.2969 C1029.8156,1070.2969 1028.5656,1071.6094 1028.5656,1073.3906 L1028.5656,1074.4844 C1028.5656,1076.1875 1029.8625,1077.2813 1031.9094,1077.2813 C1032.675,1077.2813 1033.3625,1077.1563 1033.7844,1076.8906 C1033.9719,1076.7969 1033.9719,1076.7969 1034.425,1076.3125 C1034.6125,1076.125 1034.8156,1076.0469 1035.0344,1076.0469 C1035.5031,1076.0469 1035.8938,1076.4375 1035.8938,1076.8906 C1035.8938,1077.2813 1035.5656,1077.7344 1034.9875,1078.1406 C1034.2375,1078.6875 1033.0813,1078.9844 1031.8625,1078.9844 C1028.9719,1078.9844 1026.8625,1077.0938 1026.8625,1074.5156 L1026.8625,1073.3906 C1026.8625,1070.6719 1028.8625,1068.5938 1031.4875,1068.5938 C1032.3625,1068.5938 1032.9563,1068.7344 1033.8938,1069.1719 Z "/><text fill="#000000" font-family="sans-serif" font-size="12" lengthAdjust="spacingAndGlyphs" textLength="90" x="1048.45" y="1077.6543">SpamDetector</text><line style="stroke: #A80036; stroke-width: 1.5;" x1="1004.5" x2="1153.5" y1="1089.5" y2="1089.5"/><text fill="#000000" font-family="sans-serif" font-size="11" lengthAdjust="spacingAndGlyphs" textLength="65" x="1009.5" y="1103.7104">user : User</text><text fill="#000000" font-family="sans-serif" font-size="11" lengthAdjust="spacingAndGlyphs" textLength="88" x="1009.5" y="1116.5151">review : Review</text><text fill="#000000" font-family="sans-serif" font-size="11" lengthAdjust="spacingAndGlyphs" textLength="139" x="1009.5" y="1129.3198">destination : Destination</text><text fill="#000000" font-family="sans-serif" font-size="11" lengthAdjust="spacingAndGlyphs" textLength="104" x="1009.5" y="1142.1245">spamScore : Float</text><line style="stroke: #A80036; stroke-width: 1.5;" x1="1004.5" x2="1153.5" y1="1148.7188" y2="1148.7188"/><text fill="#000000" font-family="sans-serif" font-size="11" lengthAdjust="spacingAndGlyphs" textLength="90" x="1009.5" y="1162.9292">Float getScore()</text><!--MD5=[dd38c8fd49e3d1ad31c1dd8470cac4b8]
class Dedupe--><rect fill="#FEFECE" filter="url(#feev3ciwcskw8)" height="86.4141" id="Dedupe" style="stroke: #A80036; stroke-width: 1.5;" width="243" x="1265.5" y="798.5"/><ellipse cx="1358.25" cy="814.5" fill="#ADD1B2" rx="11" ry="11" style="stroke: #A80036; stroke-width: 1.0;"/><path d="M1360.5938,810.1719 L1360.7656,810.25 C1360.9844,809.9375 1361.1875,809.8438 1361.4844,809.8438 C1361.7813,809.8438 1362.0625,809.9844 1362.2188,810.25 C1362.3125,810.4063 1362.3281,810.5313 1362.3281,810.9688 L1362.3281,812.3906 C1362.3281,812.8125 1362.2969,813 1362.1875,813.1563 C1362.0156,813.375 1361.75,813.5156 1361.4844,813.5156 C1361.2656,813.5156 1361.0313,813.4063 1360.8906,813.2656 C1360.75,813.1406 1360.7188,813.0156 1360.6563,812.6094 C1360.5625,812.2031 1360.3906,811.9844 1359.9063,811.7031 C1359.4375,811.4531 1358.8281,811.2969 1358.25,811.2969 C1356.5156,811.2969 1355.2656,812.6094 1355.2656,814.3906 L1355.2656,815.4844 C1355.2656,817.1875 1356.5625,818.2813 1358.6094,818.2813 C1359.375,818.2813 1360.0625,818.1563 1360.4844,817.8906 C1360.6719,817.7969 1360.6719,817.7969 1361.125,817.3125 C1361.3125,817.125 1361.5156,817.0469 1361.7344,817.0469 C1362.2031,817.0469 1362.5938,817.4375 1362.5938,817.8906 C1362.5938,818.2813 1362.2656,818.7344 1361.6875,819.1406 C1360.9375,819.6875 1359.7813,819.9844 1358.5625,819.9844 C1355.6719,819.9844 1353.5625,818.0938 1353.5625,815.5156 L1353.5625,814.3906 C1353.5625,811.6719 1355.5625,809.5938 1358.1875,809.5938 C1359.0625,809.5938 1359.6563,809.7344 1360.5938,810.1719 Z "/><text fill="#000000" font-family="sans-serif" font-size="12" lengthAdjust="spacingAndGlyphs" textLength="49" x="1378.75" y="818.6543">Dedupe</text><line style="stroke: #A80036; stroke-width: 1.5;" x1="1266.5" x2="1507.5" y1="830.5" y2="830.5"/><text fill="#000000" font-family="sans-serif" font-size="11" lengthAdjust="spacingAndGlyphs" textLength="139" x="1271.5" y="844.7104">destination : Destination</text><text fill="#000000" font-family="sans-serif" font-size="11" lengthAdjust="spacingAndGlyphs" textLength="231" x="1271.5" y="857.5151">possibleDuplicates : Array&lt;Destination&gt;</text><line style="stroke: #A80036; stroke-width: 1.5;" x1="1266.5" x2="1507.5" y1="864.1094" y2="864.1094"/><text fill="#000000" font-family="sans-serif" font-size="11" lengthAdjust="spacingAndGlyphs" textLength="191" x="1271.5" y="878.3198">Array[Destination] getDuplicates()</text><!--MD5=[3265fe36980fb766de0887c3b0bed38f]
class Sorter--><rect fill="#FEFECE" filter="url(#feev3ciwcskw8)" height="73.6094" id="Sorter" style="stroke: #A80036; stroke-width: 1.5;" width="102" x="1190" y="1076.5"/><ellipse cx="1218.95" cy="1092.5" fill="#ADD1B2" rx="11" ry="11" style="stroke: #A80036; stroke-width: 1.0;"/><path d="M1221.2938,1088.1719 L1221.4656,1088.25 C1221.6844,1087.9375 1221.8875,1087.8438 1222.1844,1087.8438 C1222.4813,1087.8438 1222.7625,1087.9844 1222.9188,1088.25 C1223.0125,1088.4063 1223.0281,1088.5313 1223.0281,1088.9688 L1223.0281,1090.3906 C1223.0281,1090.8125 1222.9969,1091 1222.8875,1091.1563 C1222.7156,1091.375 1222.45,1091.5156 1222.1844,1091.5156 C1221.9656,1091.5156 1221.7313,1091.4063 1221.5906,1091.2656 C1221.45,1091.1406 1221.4188,1091.0156 1221.3563,1090.6094 C1221.2625,1090.2031 1221.0906,1089.9844 1220.6063,1089.7031 C1220.1375,1089.4531 1219.5281,1089.2969 1218.95,1089.2969 C1217.2156,1089.2969 1215.9656,1090.6094 1215.9656,1092.3906 L1215.9656,1093.4844 C1215.9656,1095.1875 1217.2625,1096.2813 1219.3094,1096.2813 C1220.075,1096.2813 1220.7625,1096.1563 1221.1844,1095.8906 C1221.3719,1095.7969 1221.3719,1095.7969 1221.825,1095.3125 C1222.0125,1095.125 1222.2156,1095.0469 1222.4344,1095.0469 C1222.9031,1095.0469 1223.2938,1095.4375 1223.2938,1095.8906 C1223.2938,1096.2813 1222.9656,1096.7344 1222.3875,1097.1406 C1221.6375,1097.6875 1220.4813,1097.9844 1219.2625,1097.9844 C1216.3719,1097.9844 1214.2625,1096.0938 1214.2625,1093.5156 L1214.2625,1092.3906 C1214.2625,1089.6719 1216.2625,1087.5938 1218.8875,1087.5938 C1219.7625,1087.5938 1220.3563,1087.7344 1221.2938,1088.1719 Z "/><text fill="#000000" font-family="sans-serif" font-size="12" lengthAdjust="spacingAndGlyphs" textLength="39" x="1236.05" y="1096.6543">Sorter</text><line style="stroke: #A80036; stroke-width: 1.5;" x1="1191" x2="1291" y1="1108.5" y2="1108.5"/><text fill="#000000" font-family="sans-serif" font-size="11" lengthAdjust="spacingAndGlyphs" textLength="66" x="1196" y="1122.7104">type: String</text><line style="stroke: #A80036; stroke-width: 1.5;" x1="1191" x2="1291" y1="1129.3047" y2="1129.3047"/><text fill="#000000" font-family="sans-serif" font-size="11" lengthAdjust="spacingAndGlyphs" textLength="90" x="1196" y="1143.5151">Array&lt;T&gt; sort()</text><!--MD5=[2ffa7840d0bf668b6ea1488673c3b870]
class MarkdownCompiler--><rect fill="#FEFECE" filter="url(#feev3ciwcskw8)" height="73.6094" id="MarkdownCompiler" style="stroke: #A80036; stroke-width: 1.5;" width="149" x="585.5" y="500.5"/><ellipse cx="600.5" cy="516.5" fill="#ADD1B2" rx="11" ry="11" style="stroke: #A80036; stroke-width: 1.0;"/><path d="M602.8438,512.1719 L603.0156,512.25 C603.2344,511.9375 603.4375,511.8438 603.7344,511.8438 C604.0313,511.8438 604.3125,511.9844 604.4688,512.25 C604.5625,512.4063 604.5781,512.5313 604.5781,512.9688 L604.5781,514.3906 C604.5781,514.8125 604.5469,515 604.4375,515.1563 C604.2656,515.375 604,515.5156 603.7344,515.5156 C603.5156,515.5156 603.2813,515.4063 603.1406,515.2656 C603,515.1406 602.9688,515.0156 602.9063,514.6094 C602.8125,514.2031 602.6406,513.9844 602.1563,513.7031 C601.6875,513.4531 601.0781,513.2969 600.5,513.2969 C598.7656,513.2969 597.5156,514.6094 597.5156,516.3906 L597.5156,517.4844 C597.5156,519.1875 598.8125,520.2813 600.8594,520.2813 C601.625,520.2813 602.3125,520.1563 602.7344,519.8906 C602.9219,519.7969 602.9219,519.7969 603.375,519.3125 C603.5625,519.125 603.7656,519.0469 603.9844,519.0469 C604.4531,519.0469 604.8438,519.4375 604.8438,519.8906 C604.8438,520.2813 604.5156,520.7344 603.9375,521.1406 C603.1875,521.6875 602.0313,521.9844 600.8125,521.9844 C597.9219,521.9844 595.8125,520.0938 595.8125,517.5156 L595.8125,516.3906 C595.8125,513.6719 597.8125,511.5938 600.4375,511.5938 C601.3125,511.5938 601.9063,511.7344 602.8438,512.1719 Z "/><text fill="#000000" font-family="sans-serif" font-size="12" lengthAdjust="spacingAndGlyphs" textLength="117" x="614.5" y="520.6543">MarkdownCompiler</text><line style="stroke: #A80036; stroke-width: 1.5;" x1="586.5" x2="733.5" y1="532.5" y2="532.5"/><text fill="#000000" font-family="sans-serif" font-size="11" lengthAdjust="spacingAndGlyphs" textLength="127" x="591.5" y="546.7104">reviewContent : String</text><line style="stroke: #A80036; stroke-width: 1.5;" x1="586.5" x2="733.5" y1="553.3047" y2="553.3047"/><text fill="#000000" font-family="sans-serif" font-size="11" lengthAdjust="spacingAndGlyphs" textLength="90" x="591.5" y="567.5151">String compile()</text><!--MD5=[3453e73a9344f6be67b22b5194185d23]
class Pagination--><rect fill="#FEFECE" filter="url(#feev3ciwcskw8)" height="73.6094" id="Pagination" style="stroke: #A80036; stroke-width: 1.5;" width="154" x="1544" y="804.5"/><ellipse cx="1583.75" cy="820.5" fill="#ADD1B2" rx="11" ry="11" style="stroke: #A80036; stroke-width: 1.0;"/><path d="M1586.0938,816.1719 L1586.2656,816.25 C1586.4844,815.9375 1586.6875,815.8438 1586.9844,815.8438 C1587.2813,815.8438 1587.5625,815.9844 1587.7188,816.25 C1587.8125,816.4063 1587.8281,816.5313 1587.8281,816.9688 L1587.8281,818.3906 C1587.8281,818.8125 1587.7969,819 1587.6875,819.1563 C1587.5156,819.375 1587.25,819.5156 1586.9844,819.5156 C1586.7656,819.5156 1586.5313,819.4063 1586.3906,819.2656 C1586.25,819.1406 1586.2188,819.0156 1586.1563,818.6094 C1586.0625,818.2031 1585.8906,817.9844 1585.4063,817.7031 C1584.9375,817.4531 1584.3281,817.2969 1583.75,817.2969 C1582.0156,817.2969 1580.7656,818.6094 1580.7656,820.3906 L1580.7656,821.4844 C1580.7656,823.1875 1582.0625,824.2813 1584.1094,824.2813 C1584.875,824.2813 1585.5625,824.1563 1585.9844,823.8906 C1586.1719,823.7969 1586.1719,823.7969 1586.625,823.3125 C1586.8125,823.125 1587.0156,823.0469 1587.2344,823.0469 C1587.7031,823.0469 1588.0938,823.4375 1588.0938,823.8906 C1588.0938,824.2813 1587.7656,824.7344 1587.1875,825.1406 C1586.4375,825.6875 1585.2813,825.9844 1584.0625,825.9844 C1581.1719,825.9844 1579.0625,824.0938 1579.0625,821.5156 L1579.0625,820.3906 C1579.0625,817.6719 1581.0625,815.5938 1583.6875,815.5938 C1584.5625,815.5938 1585.1563,815.7344 1586.0938,816.1719 Z "/><text fill="#000000" font-family="sans-serif" font-size="12" lengthAdjust="spacingAndGlyphs" textLength="67" x="1603.25" y="824.6543">Pagination</text><line style="stroke: #A80036; stroke-width: 1.5;" x1="1545" x2="1697" y1="836.5" y2="836.5"/><text fill="#000000" font-family="sans-serif" font-size="11" lengthAdjust="spacingAndGlyphs" textLength="81" x="1550" y="850.7104">offset: Integer</text><line style="stroke: #A80036; stroke-width: 1.5;" x1="1545" x2="1697" y1="857.3047" y2="857.3047"/><text fill="#000000" font-family="sans-serif" font-size="11" lengthAdjust="spacingAndGlyphs" textLength="142" x="1550" y="871.5151">Array&lt;T&gt; getNextItems()</text><!--MD5=[837747dc06c74992311b5192ace8ff31]
reverse link Country to Destination--><path d="M1432.78,355.69 C1402.28,381.37 1368.33,409.94 1336.6,436.65 " fill="none" id="Country&lt;-Destination" style="stroke: #A80036; stroke-width: 1.0;"/><polygon fill="#A80036" points="1442.98,347.1,1435.8139,347.9045,1433.8004,354.8288,1440.9665,354.0243,1442.98,347.1" style="stroke: #A80036; stroke-width: 1.0;"/><text fill="#000000" font-family="sans-serif" font-size="13" lengthAdjust="spacingAndGlyphs" textLength="56" x="1403" y="390.0669">Contains</text><text fill="#000000" font-family="sans-serif" font-size="13" lengthAdjust="spacingAndGlyphs" textLength="8" x="1425.4904" y="367.6693">1</text><text fill="#000000" font-family="sans-serif" font-size="13" lengthAdjust="spacingAndGlyphs" textLength="36" x="1344.4972" y="427.4491">many</text><!--MD5=[a521ae061bb4571348669afefc5d7fb7]
reverse link Destination to Review--><path d="M1089.29,631.223 C1070.59,646.946 1052.2,663.785 1036,681 C1022.51,695.329 1009.45,711.438 997.311,727.766 " fill="none" id="Destination&lt;-Review" style="stroke: #A80036; stroke-width: 1.0;"/><polygon fill="#A80036" points="1099.4,622.858,1092.2273,623.601,1090.1544,630.5077,1097.3271,629.7647,1099.4,622.858" style="stroke: #A80036; stroke-width: 1.0;"/><text fill="#000000" font-family="sans-serif" font-size="13" lengthAdjust="spacingAndGlyphs" textLength="25" x="1037" y="694.0669">Has</text><text fill="#000000" font-family="sans-serif" font-size="13" lengthAdjust="spacingAndGlyphs" textLength="8" x="1083.5459" y="624.9084">1</text><text fill="#000000" font-family="sans-serif" font-size="13" lengthAdjust="spacingAndGlyphs" textLength="36" x="964.7262" y="717.0621">many</text><!--MD5=[f0c5057b427ac0482f8d3af04e49cb70]
reverse link Review to ReviewRating--><path d="M910.648,968.104 C908.002,989.756 905.316,1011.732 902.865,1031.79 " fill="none" id="Review&lt;-ReviewRating" style="stroke: #A80036; stroke-width: 1.0;"/><polygon fill="#A80036" points="912.244,955.049,907.5456,960.5194,910.7882,966.9604,915.4866,961.4899,912.244,955.049" style="stroke: #A80036; stroke-width: 1.0;"/><text fill="#000000" font-family="sans-serif" font-size="13" lengthAdjust="spacingAndGlyphs" textLength="38" x="910" y="998.0669">Has A</text><text fill="#000000" font-family="sans-serif" font-size="13" lengthAdjust="spacingAndGlyphs" textLength="8" x="903.051" y="975.2444">1</text><text fill="#000000" font-family="sans-serif" font-size="13" lengthAdjust="spacingAndGlyphs" textLength="8" x="895.3874" y="1020.9068">1</text><!--MD5=[188a626325988b2bf9885b82ce96052f]
link FeedController to Country--><path d="M883.107,75.54 C977.867,88.32 1134.12,112.86 1265,150 C1320.1,165.64 1332.73,173.58 1385,197 C1398.28,202.95 1412.09,209.48 1425.69,216.12 " fill="none" id="FeedController-&gt;Country" style="stroke: #A80036; stroke-width: 1.0;"/><polygon fill="#A80036" points="1430.29,218.38,1423.9709,210.8256,1425.8008,216.1783,1420.4482,218.0083,1430.29,218.38" style="stroke: #A80036; stroke-width: 1.0;"/><text fill="#000000" font-family="sans-serif" font-size="13" lengthAdjust="spacingAndGlyphs" textLength="32" x="1316" y="163.0669">Uses</text><!--MD5=[9c4d3a984f01b6f2d18adb7002619907]
link FeedController to Destination--><path d="M883.096,68.3 C973.804,76.79 1113.37,105.1 1186,197 C1234.66,258.57 1241.51,347.42 1236.8,418.78 " fill="none" id="FeedController-&gt;Destination" style="stroke: #A80036; stroke-width: 1.0;"/><polygon fill="#A80036" points="1236.44,423.88,1241.0728,415.1888,1236.7973,418.8928,1233.0933,414.6172,1236.44,423.88" style="stroke: #A80036; stroke-width: 1.0;"/><text fill="#000000" font-family="sans-serif" font-size="13" lengthAdjust="spacingAndGlyphs" textLength="32" x="1237" y="276.5669">Uses</text><!--MD5=[fb21141528f2326c84592809c309be60]
link FeedController to User--><path d="M710.941,71.01 C537.586,84.56 153.861,122.3 48,197 C17.1013,218.8 6,233.18 6,271 C6,271 6,271 6,1114.5 C6,1205.443 76.5816,1280.525 145.703,1332.248 " fill="none" id="FeedController-&gt;User" style="stroke: #A80036; stroke-width: 1.0;"/><polygon fill="#A80036" points="149.832,1335.311,144.9878,1326.7358,145.8166,1332.3316,140.2208,1333.1604,149.832,1335.311" style="stroke: #A80036; stroke-width: 1.0;"/><text fill="#000000" font-family="sans-serif" font-size="13" lengthAdjust="spacingAndGlyphs" textLength="32" x="7" y="694.0669">Uses</text><!--MD5=[859d12ecda61b57cc8a87782703935d4]
link FeedController to AuthMiddleware--><path d="M710.678,75.64 C636.759,89.76 534.366,122.34 483,197 C420.616,287.68 443.348,426.59 460.246,495.21 " fill="none" id="FeedController-&gt;AuthMiddleware" style="stroke: #A80036; stroke-width: 1.0;"/><polygon fill="#A80036" points="461.553,500.42,463.2474,490.718,460.3386,495.5697,455.4869,492.661,461.553,500.42" style="stroke: #A80036; stroke-width: 1.0;"/><text fill="#000000" font-family="sans-serif" font-size="13" lengthAdjust="spacingAndGlyphs" textLength="32" x="484" y="276.5669">Uses</text><!--MD5=[33a70d88fe4d593bc62ef1a77b22a53b]
link SearchController to Country--><path d="M1393.54,107.41 C1407.63,120.64 1422.82,135.55 1436,150 C1448.26,163.43 1460.72,178.28 1472.41,192.84 " fill="none" id="SearchController-&gt;Country" style="stroke: #A80036; stroke-width: 1.0;"/><polygon fill="#A80036" points="1475.68,196.94,1473.1855,187.4123,1472.5583,193.0343,1466.9363,192.4071,1475.68,196.94" style="stroke: #A80036; stroke-width: 1.0;"/><text fill="#000000" font-family="sans-serif" font-size="13" lengthAdjust="spacingAndGlyphs" textLength="32" x="1450" y="163.0669">Uses</text><!--MD5=[8f7b9363c735b45fec8330ed4ad7ecdb]
link SearchController to Destination--><path d="M1337.54,107.36 C1326.17,162.8 1304.63,262.83 1281,347 C1274.44,370.37 1266.75,395.13 1259.05,418.78 " fill="none" id="SearchController-&gt;Destination" style="stroke: #A80036; stroke-width: 1.0;"/><polygon fill="#A80036" points="1257.4,423.81,1264.0013,416.5009,1258.9554,419.0581,1256.3982,414.0122,1257.4,423.81" style="stroke: #A80036; stroke-width: 1.0;"/><text fill="#000000" font-family="sans-serif" font-size="13" lengthAdjust="spacingAndGlyphs" textLength="32" x="1318" y="276.5669">Uses</text><!--MD5=[d4ec7cb2eb63972c4aacd65f2df80a86]
link CountryController to Country--><path d="M1546.42,94.51 C1544.21,119.86 1540.91,157.58 1537.93,191.66 " fill="none" id="CountryController-&gt;Country" style="stroke: #A80036; stroke-width: 1.0;"/><polygon fill="#A80036" points="1537.5,196.66,1542.2582,188.0368,1537.9294,191.6785,1534.2878,187.3497,1537.5,196.66" style="stroke: #A80036; stroke-width: 1.0;"/><text fill="#000000" font-family="sans-serif" font-size="13" lengthAdjust="spacingAndGlyphs" textLength="32" x="1542" y="163.0669">Uses</text><!--MD5=[d368dae3c6e6d54d26286e7b229c7d27]
link DestinationController to Destination--><path d="M865.61,321.54 C877.928,330.18 890.766,338.98 903,347 C965.173,387.73 1035.97,430.63 1094.68,465.28 " fill="none" id="DestinationController-&gt;Destination" style="stroke: #A80036; stroke-width: 1.0;"/><polygon fill="#A80036" points="1099.24,467.97,1093.5293,459.9458,1094.9362,465.4249,1089.4571,466.8319,1099.24,467.97" style="stroke: #A80036; stroke-width: 1.0;"/><text fill="#000000" font-family="sans-serif" font-size="13" lengthAdjust="spacingAndGlyphs" textLength="32" x="972" y="390.0669">Uses</text><!--MD5=[0d14a36482ee7bb6bf155838a46063cb]
link DestinationController to AuthMiddleware--><path d="M737.895,321.63 C724.298,330.96 709.578,339.99 695,347 C651.263,368.04 629.89,349.35 590,377 C546.244,407.33 512.31,459.17 492.289,495.5 " fill="none" id="DestinationController-&gt;AuthMiddleware" style="stroke: #A80036; stroke-width: 1.0;"/><polygon fill="#A80036" points="489.676,500.3,497.4871,494.3012,492.0628,495.9065,490.4575,490.4822,489.676,500.3" style="stroke: #A80036; stroke-width: 1.0;"/><text fill="#000000" font-family="sans-serif" font-size="13" lengthAdjust="spacingAndGlyphs" textLength="32" x="591" y="390.0669">Uses</text><!--MD5=[ad60faa5aaf821ba299f657f8b243999]
link ReviewController to Review--><path d="M662.235,321.58 C691.825,349.33 727.039,386.08 752,424 C813.528,517.47 860.555,636.262 890.114,723.038 " fill="none" id="ReviewController-&gt;Review" style="stroke: #A80036; stroke-width: 1.0;"/><polygon fill="#A80036" points="891.771,727.925,892.6683,718.1171,890.165,723.1899,885.0922,720.6867,891.771,727.925" style="stroke: #A80036; stroke-width: 1.0;"/><text fill="#000000" font-family="sans-serif" font-size="13" lengthAdjust="spacingAndGlyphs" textLength="32" x="865" y="542.0669">Uses</text><!--MD5=[9d1169e1c88c17520a222b0fd64632a9]
link ReviewController to MarkdownCompiler--><path d="M618.888,321.51 C623.318,338.94 628.132,358.8 632,377 C640.487,416.94 648.356,462.9 653.577,495.19 " fill="none" id="ReviewController-&gt;MarkdownCompiler" style="stroke: #A80036; stroke-width: 1.0;"/><polygon fill="#A80036" points="654.391,500.25,656.9268,490.7332,653.6052,495.3121,649.0262,491.9905,654.391,500.25" style="stroke: #A80036; stroke-width: 1.0;"/><text fill="#000000" font-family="sans-serif" font-size="13" lengthAdjust="spacingAndGlyphs" textLength="32" x="636" y="390.0669">Uses</text><!--MD5=[7ffa5658a3aadce2c9fb2f41c8dffd53]
link ReviewController to AuthMiddleware--><path d="M558.983,321.64 C544.906,338.2 530.452,357.48 520,377 C499.851,414.63 486.979,461.89 479.692,495.17 " fill="none" id="ReviewController-&gt;AuthMiddleware" style="stroke: #A80036; stroke-width: 1.0;"/><polygon fill="#A80036" points="478.57,500.38,484.3597,492.4126,479.6132,495.49,476.5357,490.7435,478.57,500.38" style="stroke: #A80036; stroke-width: 1.0;"/><text fill="#000000" font-family="sans-serif" font-size="13" lengthAdjust="spacingAndGlyphs" textLength="32" x="521" y="390.0669">Uses</text><!--MD5=[47ef2883ad318b6dfda1e3625d8c3bee]
link LoginController to AuthMiddleware--><path d="M161.964,302.82 C177.495,316.58 196.432,332.94 214,347 C281.739,401.21 362.804,459.77 415.752,497.22 " fill="none" id="LoginController-&gt;AuthMiddleware" style="stroke: #A80036; stroke-width: 1.0;"/><polygon fill="#A80036" points="420.15,500.33,415.1063,491.8706,416.066,497.4455,410.4911,498.4051,420.15,500.33" style="stroke: #A80036; stroke-width: 1.0;"/><text fill="#000000" font-family="sans-serif" font-size="13" lengthAdjust="spacingAndGlyphs" textLength="32" x="271" y="390.0669">Uses</text><!--MD5=[673fb50937dc276ecf382a65489574a4]
link LoginController to User--><path d="M122.417,302.86 C112.278,351.54 94,451.13 94,536.5 C94,536.5 94,536.5 94,1114.5 C94,1169.45 117.155,1222.697 146.993,1268.5 " fill="none" id="LoginController-&gt;User" style="stroke: #A80036; stroke-width: 1.0;"/><polygon fill="#A80036" points="149.9,1272.909,148.2844,1263.1936,147.1473,1268.735,141.6059,1267.5979,149.9,1272.909" style="stroke: #A80036; stroke-width: 1.0;"/><text fill="#000000" font-family="sans-serif" font-size="13" lengthAdjust="spacingAndGlyphs" textLength="32" x="95" y="846.0669">Uses</text><!--MD5=[e0b8d7cf65c0c3c7f3275380f6c6ec62]
link SignUpController to User--><path d="M222.128,1144.187 C228.162,1173.417 237.838,1220.291 247.397,1266.595 " fill="none" id="SignUpController-&gt;User" style="stroke: #A80036; stroke-width: 1.0;"/><polygon fill="#A80036" points="248.441,1271.653,250.5406,1262.0305,247.431,1266.7561,242.7055,1263.6465,248.441,1271.653" style="stroke: #A80036; stroke-width: 1.0;"/><text fill="#000000" font-family="sans-serif" font-size="13" lengthAdjust="spacingAndGlyphs" textLength="32" x="243" y="1238.0669">Uses</text><!--MD5=[0ac1b9a9fbb5aafb3e34d986379801fb]
link AccountController to AuthMiddleware--><path d="M337.529,315.04 C367.676,364.69 417.474,446.7 447.268,495.77 " fill="none" id="AccountController-&gt;AuthMiddleware" style="stroke: #A80036; stroke-width: 1.0;"/><polygon fill="#A80036" points="449.91,500.12,448.6502,490.3521,447.3115,495.8482,441.8153,494.5096,449.91,500.12" style="stroke: #A80036; stroke-width: 1.0;"/><text fill="#000000" font-family="sans-serif" font-size="13" lengthAdjust="spacingAndGlyphs" textLength="32" x="384" y="390.0669">Uses</text><!--MD5=[1d4f1bbf3b096244f55d49c598eed04e]
link AccountController to User--><path d="M305.026,315.12 C302.24,333.99 299.37,356.55 298,377 C297.495,384.54 297.976,386.44 298,394 C299.116,750.003 322.594,839.592 302,1195 C300.65,1218.291 298.485,1242.93 295.979,1266.893 " fill="none" id="AccountController-&gt;User" style="stroke: #A80036; stroke-width: 1.0;"/><polygon fill="#A80036" points="295.439,1271.996,300.3654,1263.4678,295.9661,1267.0239,292.41,1262.6245,295.439,1271.996" style="stroke: #A80036; stroke-width: 1.0;"/><text fill="#000000" font-family="sans-serif" font-size="13" lengthAdjust="spacingAndGlyphs" textLength="32" x="312" y="846.0669">Uses</text><!--MD5=[d2a9fa38c9fd7c198ca766364957327c]
link AdminController to AuthMiddleware--><path d="M984.004,309.14 C959.472,322.51 930.518,336.86 903,347 C867.164,360.21 600.657,404.2 568,424 C538.634,441.81 513.746,471.72 496.675,496.23 " fill="none" id="AdminController-&gt;AuthMiddleware" style="stroke: #A80036; stroke-width: 1.0;"/><polygon fill="#A80036" points="493.791,500.42,502.1818,495.2629,496.6203,496.2975,495.5858,490.7361,493.791,500.42" style="stroke: #A80036; stroke-width: 1.0;"/><text fill="#000000" font-family="sans-serif" font-size="13" lengthAdjust="spacingAndGlyphs" textLength="32" x="763" y="390.0669">Uses</text><!--MD5=[8846936e03d5a22fddf8263657cd3eaf]
link AdminController to User--><path d="M1022.12,309.08 C1003.56,339.15 977.391,383.47 958,424 C911.299,521.61 932.314,562.54 870,651 C839.878,693.761 816.538,689.622 781,728 C620.781,901.024 463.754,1124.511 368.644,1267.585 " fill="none" id="AdminController-&gt;User" style="stroke: #A80036; stroke-width: 1.0;"/><polygon fill="#A80036" points="365.849,1271.794,374.1595,1266.5085,368.6146,1267.6285,367.4946,1262.0836,365.849,1271.794" style="stroke: #A80036; stroke-width: 1.0;"/><text fill="#000000" font-family="sans-serif" font-size="13" lengthAdjust="spacingAndGlyphs" textLength="32" x="782" y="846.0669">Uses</text><!--MD5=[0708fc31f051c2899450c5ac045ef2c8]
link AdminController to Destination--><path d="M1068.69,309.09 C1087.53,337.78 1115,379.61 1141.25,419.59 " fill="none" id="AdminController-&gt;Destination" style="stroke: #A80036; stroke-width: 1.0;"/><polygon fill="#A80036" points="1144.11,423.96,1142.5228,414.2399,1141.3695,419.7779,1135.8315,418.6246,1144.11,423.96" style="stroke: #A80036; stroke-width: 1.0;"/><text fill="#000000" font-family="sans-serif" font-size="13" lengthAdjust="spacingAndGlyphs" textLength="32" x="1123" y="390.0669">Uses</text><!--MD5=[0dca78d99b65b0e218f9f9891d5bf322]
link AdminController to Review--><path d="M1037.37,309.36 C1020.21,391.24 977.89,593.041 950.641,722.988 " fill="none" id="AdminController-&gt;Review" style="stroke: #A80036; stroke-width: 1.0;"/><polygon fill="#A80036" points="949.598,727.964,955.359,719.9758,950.6236,723.0703,947.5291,718.3349,949.598,727.964" style="stroke: #A80036; stroke-width: 1.0;"/><text fill="#000000" font-family="sans-serif" font-size="13" lengthAdjust="spacingAndGlyphs" textLength="32" x="1014" y="542.0669">Uses</text><!--MD5=[f24ec4c6b8172529332eba3c02b09ccb]
link Destination to Sorter--><path d="M1211.17,651.41 C1207.48,735.317 1205.28,852.506 1214,955 C1217.39,994.883 1225.54,1039.839 1232,1071.481 " fill="none" id="Destination-&gt;Sorter" style="stroke: #A80036; stroke-width: 1.0;"/><polygon fill="#A80036" points="1233.02,1076.442,1235.1234,1066.8204,1232.012,1071.5447,1227.2877,1068.4332,1233.02,1076.442" style="stroke: #A80036; stroke-width: 1.0;"/><text fill="#000000" font-family="sans-serif" font-size="13" lengthAdjust="spacingAndGlyphs" textLength="32" x="1215" y="846.0669">Uses</text><!--MD5=[a50dae07c0cc49deee2a243ec37450c9]
link Destination to Dedupe--><path d="M1281.17,651.383 C1308.74,700.647 1339.55,755.702 1360.78,793.648 " fill="none" id="Destination-&gt;Dedupe" style="stroke: #A80036; stroke-width: 1.0;"/><polygon fill="#A80036" points="1363.32,798.189,1362.4238,788.381,1360.882,793.8237,1355.4393,792.2818,1363.32,798.189" style="stroke: #A80036; stroke-width: 1.0;"/><text fill="#000000" font-family="sans-serif" font-size="13" lengthAdjust="spacingAndGlyphs" textLength="32" x="1303" y="694.0669">Uses</text><!--MD5=[d7502aaea1bb6bbba320bcf07f76ec72]
link Destination to Pagination--><path d="M1336.58,599.677 C1396.46,633.406 1468.42,678.451 1526,728 C1550.81,749.348 1574.56,777.481 1592.11,800.274 " fill="none" id="Destination-&gt;Pagination" style="stroke: #A80036; stroke-width: 1.0;"/><polygon fill="#A80036" points="1595.32,804.464,1593.0301,794.885,1592.2826,800.4923,1586.6754,799.7448,1595.32,804.464" style="stroke: #A80036; stroke-width: 1.0;"/><text fill="#000000" font-family="sans-serif" font-size="13" lengthAdjust="spacingAndGlyphs" textLength="32" x="1488" y="694.0669">Uses</text><!--MD5=[8f1472d97ebe991b906aa6e572dc7f11]
link Destination to SpamDetector--><path d="M1186.35,651.041 C1179.46,676.312 1172.34,703.035 1166,728 C1137.14,841.688 1131.48,870.508 1106,985 C1101.13,1006.878 1095.99,1030.915 1091.51,1052.164 " fill="none" id="Destination-&gt;SpamDetector" style="stroke: #A80036; stroke-width: 1.0;"/><polygon fill="#A80036" points="1090.45,1057.219,1096.2136,1049.2327,1091.4772,1052.3256,1088.3842,1047.5892,1090.45,1057.219" style="stroke: #A80036; stroke-width: 1.0;"/><text fill="#000000" font-family="sans-serif" font-size="13" lengthAdjust="spacingAndGlyphs" textLength="32" x="1167" y="846.0669">Uses</text><!--MD5=[10ca936b368eb64a320bf626d4486548]
link Country to Sorter--><path d="M1588.19,347.14 C1683.78,480.76 1852.71,765.638 1716,955 C1618.48,1090.079 1400.53,1111.165 1297.29,1113.242 " fill="none" id="Country-&gt;Sorter" style="stroke: #A80036; stroke-width: 1.0;"/><polygon fill="#A80036" points="1292.16,1113.331,1301.2272,1117.1761,1297.1593,1113.2453,1301.0901,1109.1773,1292.16,1113.331" style="stroke: #A80036; stroke-width: 1.0;"/><text fill="#000000" font-family="sans-serif" font-size="13" lengthAdjust="spacingAndGlyphs" textLength="32" x="1758" y="694.0669">Uses</text><!--MD5=[4dccc15a54aaefef82eec5fcf130478f]
link Country to Pagination--><path d="M1542.77,347.19 C1561.96,468.21 1599.37,704.127 1614.46,799.262 " fill="none" id="Country-&gt;Pagination" style="stroke: #A80036; stroke-width: 1.0;"/><polygon fill="#A80036" points="1615.25,804.232,1617.7859,794.7152,1614.4642,799.2941,1609.8853,795.9724,1615.25,804.232" style="stroke: #A80036; stroke-width: 1.0;"/><text fill="#000000" font-family="sans-serif" font-size="13" lengthAdjust="spacingAndGlyphs" textLength="32" x="1591" y="542.0669">Uses</text><!--MD5=[cab5c53bd532830c265806481571a480]
link Review to Sorter--><path d="M1019.06,933.128 C1027.96,940.762 1037.03,948.166 1046,955 C1098.21,994.762 1122.03,989.452 1172,1032 C1185.84,1043.788 1199.28,1058.465 1210.56,1072.045 " fill="none" id="Review-&gt;Sorter" style="stroke: #A80036; stroke-width: 1.0;"/><polygon fill="#A80036" points="1213.99,1076.221,1211.3596,1066.7299,1210.8128,1072.3603,1205.1824,1071.8135,1213.99,1076.221" style="stroke: #A80036; stroke-width: 1.0;"/><text fill="#000000" font-family="sans-serif" font-size="13" lengthAdjust="spacingAndGlyphs" textLength="32" x="1129" y="998.0669">Uses</text><!--MD5=[f261f3e3459dce7e2b81976ad2acbf1b]
link Review to SpamDetector--><path d="M989.778,955.049 C1008.77,988.562 1028.84,1023.975 1045.12,1052.71 " fill="none" id="Review-&gt;SpamDetector" style="stroke: #A80036; stroke-width: 1.0;"/><polygon fill="#A80036" points="1047.7,1057.263,1046.7511,1047.46,1045.2385,1052.9109,1039.7876,1051.3983,1047.7,1057.263" style="stroke: #A80036; stroke-width: 1.0;"/><text fill="#000000" font-family="sans-serif" font-size="13" lengthAdjust="spacingAndGlyphs" textLength="32" x="1018" y="998.0669">Uses</text><!--MD5=[dad6a285e55991d0ad3cd02a51af1498]
link SpamDetector to User--><path d="M1022.77,1169.633 C1011.24,1179.021 998.716,1187.988 986,1195 C799.27,1297.972 557.051,1357.742 409.522,1387.081 " fill="none" id="SpamDetector-&gt;User" style="stroke: #A80036; stroke-width: 1.0;"/><polygon fill="#A80036" points="404.315,1388.112,413.9201,1390.2897,409.22,1387.1419,412.3679,1382.4418,404.315,1388.112" style="stroke: #A80036; stroke-width: 1.0;"/><text fill="#000000" font-family="sans-serif" font-size="13" lengthAdjust="spacingAndGlyphs" textLength="32" x="916" y="1238.0669">Uses</text><!--MD5=[569defd74c774d4d75a689025547e024]
@startuml
class User {
  id : Integer
  firstName : String
  lastName : String
  email : String
  username : String
  password : String
  reviews : Array[Integer]
  helpfulRatings : Array[<Integer, Boolean>]
  profilePic: String
  bio: String
  location: String
  joined: Date
  isAdmin: Boolean
  User get()
  User add()
  User edit()
  boolean delete()
  Array[User] getUsers()
}

class Country {
  name : String
  about : String
  destinations: Array[Destination]
  Country get()
  Country edit()
  Array[Country] getCountries()
  Array[Country] getCountriesLike()
  Array[Country] getTopCountries()
}

class Destination {
 id : Integer
 creatorId: Integer
 name : String
 country : String
 stars: Float
 reviews: Array[Review]
 spamScore : Float
 Destination add()
 boolean update()
 boolean delete()
 Destination get()
 Array[Destination] getTopDestinations()
 Array[Destination] getDestinations()
 Array[Destination] getDestinationsLike()
}

class Review {
  id : Integer
  destinationId : Integer
  title : String
  content : String
  stars : Integer
  reviewRating: ReviewRating
  creatorId: Integer
  spamScore: Float
  Review add()
  boolean edit()
  boolean delete()
  Review get()
  Array[Review] getTopReviews()
  Array[Review] getReviews()
}

class ReviewRating {
  review : Integer
  upvotes : Integer
  downvotes : Integer
  upvoters: Array[User]
  downvoters: Array[User]
  ReviewRating get()
  ReviewRating edit()
  ReviewRating add()
  boolean delete()
}

class FeedController {
  user : User
  sorter : Sorter
  destinations : Array[Integer]
  countries : Array[Country]

  Feed getFeed()
}

class LoginController {
    User selectUser()
}

class SignUpController {
    User createUser()
}

class AccountController {
    User getUserData()
    boolean updateUserData()
    boolean deleteUser()
}

class CountryController {
    Country getCountry()
}

class DestinationController {
    Destination getDestination()
    Destination addDestination()
    Destination editDestination()
    boolean deleteDestination()
}

class ReviewController {
    Review getReview()
    Review addReview()
    Review editReview()
    boolean deleteReview()
}

class AdminController {
    Array[Destination] getSpamDestinations()
    Array[Review] getSpamReviews()
}

class AuthMiddleware {
 boolean verifyUser()
 boolean isAdmin()
}

class SearchController {
  input : String
  Array[Review] getSuggestions()
  Array[Review] getResults()
}

class SpamDetector {
  user : User
  review : Review
  destination : Destination
  spamScore : Float
  Float getScore()
}

class Dedupe {
  destination : Destination
  possibleDuplicates : Array<Destination>
  Array[Destination] getDuplicates()
}

class Sorter {
 type: String
 Array<T> sort()
}

class MarkdownCompiler {
 reviewContent : String
 String compile()
}

class Pagination {
 offset: Integer
 Array<T> getNextItems()
}











Country "1" *- - "many" Destination : Contains
Destination "1" *- - "many" Review : Has
Review "1" *- - "1" ReviewRating : Has A

FeedController - -> Country : Uses
FeedController - -> Destination : Uses
FeedController - -> User : Uses
FeedController - -> AuthMiddleware : Uses
SearchController - -> Country : Uses
SearchController - -> Destination : Uses
CountryController - -> Country : Uses
DestinationController - -> Destination : Uses
DestinationController - -> AuthMiddleware : Uses
ReviewController - -> Review : Uses
ReviewController - -> MarkdownCompiler : Uses
ReviewController - -> AuthMiddleware : Uses
LoginController - -> AuthMiddleware : Uses
LoginController - -> User : Uses
SignUpController - -> User : Uses
AccountController - -> AuthMiddleware : Uses
AccountController - -> User : Uses
AdminController - -> AuthMiddleware : Uses
AdminController - -> User : Uses
AdminController - -> Destination : Uses
AdminController - -> Review : Uses

Destination - -> Sorter : Uses
Destination - -> Dedupe : Uses
Destination - -> Pagination : Uses
Destination - -> SpamDetector : Uses
Country - -> Sorter : Uses
Country - -> Pagination : Uses
Review - -> Sorter : Uses
Review - -> SpamDetector : Uses
SpamDetector - -> User : Uses
@enduml

PlantUML version 1.2019.11(Sun Sep 22 10:02:15 UTC 2019)
(GPL source distribution)
Java Runtime: Java(TM) SE Runtime Environment
JVM: Java HotSpot(TM) 64-Bit Server VM
Java Version: 1.7.0_25-b15
Operating System: Linux
Default Encoding: UTF-8
Language: en
Country: US
--></g></svg>